<svg class="page-header__logo" width="175" height="46" viewBox="0 0 175 46" fill="none" xmlns="http://www.w3.org/2000/svg"><path d="M163.27 24.019c-.892-1.442-2.141-2.162-3.747-2.16a4.237 4.237 0 00-2.271.557 4.082 4.082 0 00-1.599 1.666c-.846 1.398-1.268 3.23-1.266 5.496 0 2.182.38 3.952 1.14 5.309.892 1.564 2.224 2.346 3.996 2.346 1.688 0 2.977-.803 3.867-2.408.714-1.318 1.071-3.066 1.071-5.247 0-2.39-.402-4.244-1.205-5.559h.014zm11.494 21.272a.757.757 0 01-.535.216h-8.995a.77.77 0 01-.54-.216.718.718 0 01-.22-.526v-2.023c0-.122-.043-.195-.128-.216a.276.276 0 00-.252.094c-1.691 2.259-4.123 3.388-7.293 3.388a12.28 12.28 0 01-7.641-2.53c-2.22-1.688-3.794-3.994-4.724-6.918a24.446 24.446 0 01-1.014-7.162 21.515 21.515 0 011.338-7.78 13.381 13.381 0 014.66-6.173c2.141-1.564 4.728-2.346 7.761-2.346 3.033 0 5.337.967 6.913 2.9.083.126.166.167.252.126a.257.257 0 00.128-.26V3.024a.715.715 0 01.219-.526.761.761 0 01.541-.213h8.995a.776.776 0 01.541.214.731.731 0 01.222.526v41.739a.705.705 0 01-.222.52l-.006.006zm-43.26-19.049a.217.217 0 01-.147.251.232.232 0 01-.107.01h-9.003c-.254 0-.34-.105-.254-.31.047-.446.153-.884.315-1.303.714-2.018 2.173-3.026 4.376-3.026a5.107 5.107 0 012.944.802 4.11 4.11 0 011.619 2.346 4 4 0 01.255 1.235l.002-.005zm10.703.5a17.75 17.75 0 00-2.695-7.07 14.487 14.487 0 00-5.353-4.876 15.609 15.609 0 00-7.475-1.765c-3.467 0-6.458.875-8.974 2.625-2.515 1.75-4.322 4.147-5.419 7.193a18.9 18.9 0 00-1.014 6.174c0 3.09.446 5.662 1.338 7.72a13.835 13.835 0 005.802 6.82c2.676 1.63 5.942 2.443 9.798 2.44a19.943 19.943 0 007.13-1.236 14.428 14.428 0 005.478-3.589.717.717 0 00.268-.495.574.574 0 00-.07-.28.601.601 0 00-.198-.215l-4.881-5.434a.613.613 0 00-.509-.245.738.738 0 00-.57.308c-1.52 1.688-3.613 2.533-6.279 2.533a7.907 7.907 0 01-3.746-.805 5.537 5.537 0 01-2.262-2.09 8.061 8.061 0 01-.634-1.791.157.157 0 01-.02-.06.162.162 0 01.035-.116.169.169 0 01.049-.04.435.435 0 01.254-.092h19.318a.759.759 0 00.588-.186.702.702 0 00.236-.556 24.1 24.1 0 00-.19-4.877l-.005.006zm-32.038-5.16a.75.75 0 01-.536.216h-5.775a.277.277 0 00-.243.072.265.265 0 00-.067.109.25.25 0 00-.006.127v11.238c0 2.346.971 3.519 2.914 3.519h2.348a.777.777 0 01.539.217.747.747 0 01.221.525v7.16c0 .453-.255.722-.76.802-2.029.084-3.508.126-4.438.126-3.677 0-6.404-.567-8.181-1.7-1.777-1.133-2.686-3.287-2.725-6.463V22.106a.255.255 0 00-.075-.24.27.27 0 00-.249-.067h-9.948a.275.275 0 00-.242.07.26.26 0 00-.073.237v11.238c0 2.346.971 3.519 2.914 3.519h2.347a.775.775 0 01.54.217.736.736 0 01.22.525v7.16c0 .453-.254.722-.76.802-2.028.084-3.508.126-4.437.126-3.677 0-6.404-.567-8.182-1.7-1.777-1.133-2.683-3.287-2.719-6.463V22.106a.253.253 0 00-.073-.236.269.269 0 00-.243-.072h-3.613a.775.775 0 01-.54-.215.737.737 0 01-.222-.527v-6.722a.722.722 0 01.221-.527.76.76 0 01.541-.216h3.613a.274.274 0 00.248-.072.26.26 0 00.068-.243V5.804a.722.722 0 01.223-.525.759.759 0 01.54-.215h8.564a.776.776 0 01.54.215.735.735 0 01.223.525v7.472a.254.254 0 00.073.237.269.269 0 00.243.07h9.934a.276.276 0 00.245-.069.26.26 0 00.074-.238V5.804a.721.721 0 01.222-.524.76.76 0 01.538-.216h8.564a.773.773 0 01.54.215.731.731 0 01.223.525v7.472a.25.25 0 00.006.127.264.264 0 00.179.175.277.277 0 00.131.006h5.77a.763.763 0 01.535.216.727.727 0 01.222.521v6.735a.721.721 0 01-.222.521l.006.005zm-53.364 23.92h9.003a.76.76 0 00.702-.455.7.7 0 00.056-.282v-30.43a.72.72 0 00-.222-.528.76.76 0 00-.541-.216h-8.992a.777.777 0 00-.54.217.737.737 0 00-.22.526v30.43a.691.691 0 00.222.522.734.734 0 00.535.216h-.003zm4.571-34.76a5.44 5.44 0 01-2.144-.351 5.329 5.329 0 01-1.82-1.16 5.163 5.163 0 01-1.19-1.771 5.052 5.052 0 01-.362-2.089c0-1.602.518-2.898 1.553-3.888C58.448.493 59.769-.002 61.376 0c1.606 0 2.927.494 3.964 1.483 1.037.989 1.554 2.285 1.552 3.888a5.138 5.138 0 01-.374 2.07 5.323 5.323 0 01-2.993 2.936 5.437 5.437 0 01-2.149.366zM12.745 45.508h8.494a.775.775 0 00.559-.171.743.743 0 00.266-.509l4.945-23.834c.043-.164.105-.26.19-.26.086 0 .15.083.193.26l5.527 23.834a.725.725 0 00.267.509.766.766 0 00.56.171h9.067c.2.018.399-.034.561-.148a.81.81 0 00.325-.47l10.706-41.8c.125-.522-.105-.803-.699-.803H44.32a.78.78 0 00-.557.171.743.743 0 00-.267.506L38.36 25.377c-.043.167-.107.248-.19.248s-.147-.081-.19-.248L32.464 2.903a.78.78 0 00-.296-.456.818.818 0 00-.528-.161h-8.814a.777.777 0 00-.557.17.74.74 0 00-.267.507l-4.946 22.414c-.043.167-.107.248-.19.248s-.15-.081-.192-.248L11.16 2.903a.78.78 0 00-.295-.456.818.818 0 00-.529-.161H.696C.23 2.286 0 2.47 0 2.84l.064.247L11.856 44.89c.047.19.163.356.326.47a.851.851 0 00.563.147z" fill="currentColor"></path></svg>